opsz144_wght100_wdth50.ufo
<glyph name="A" format="2">
	<unicode hex="0041"/>
	<advance width="1467"/>
	<outline>
		<contour>
			<point x="-195.2943725586" y="0" type="line"/>
			<point x="-193.2474365234" y="101.0026855469" type="line"/>
			<point x="25.8852539062" y="129.0026855469" type="line"/>
			<point x="311.0884399414" y="532.4815673828" type="line"/>
			<point x="971.8865356445" y="1517" type="line"/>
			<point x="1118.8925170898" y="1506" type="line"/>
			<point x="1171.119140625" y="561" type="line"/>
			<point x="1214.8518066406" y="125.0026855469" type="line"/>
			<point x="1398.5931396484" y="100.0026855469" type="line"/>
			<point x="1374.2844848633" y="0" type="line"/>
			<point x="832.352355957" y="0" type="line"/>
			<point x="858.6610107422" y="100.0026855469" type="line"/>
			<point x="1034.40234375" y="128.0026855469" type="line"/>
			<point x="1010.0994873047" y="546" type="line"/>
			<point x="891" y="1166" type="line"/>
			<point x="886" y="1287" type="line"/>
			<point x="876" y="1287" type="line"/>
			<point x="799" y="1167" type="line"/>
			<point x="403.1748046875" y="501.2221679688" type="line"/>
			<point x="158.9969482422" y="130.0026855469" type="line"/>
			<point x="355.6080322266" y="101.0026855469" type="line"/>
			<point x="353.5610961914" y="0" type="line"/>
		</contour>
		<contour>
			<point x="317.0456542969" y="463.0738525391" type="line"/>
			<point x="386.0404052734" y="565.111328125" type="line"/>
			<point x="828.8427734375" y="426.4448242188" type="line"/>
			<point x="812.5092773438" y="338.1848144531" type="line"/>
		</contour>
		<contour>
			<point x="828.8427734375" y="426.4448242188" type="line"/>
			<point x="1099.341003418" y="561.6668701172" type="line"/>
			<point x="1104.3024291992" y="467.9627685547" type="line"/>
			<point x="812.5092773438" y="338.1848144531" type="line"/>
		</contour>
	</outline>
	<anchor name="bottom" x="523" y="0"/>
	<anchor name="ogonek" x="1098" y="0"/>
	<anchor name="top" x="954" y="1500"/>
	<anchor name="tonos" x="613" y="1500"/>
</glyph>
<glyph name="D" format="2">
	<unicode hex="0044"/>
	<advance width="1431"/>
	<outline>
		<contour>
			<point x="-59.0271606445" y="0" type="line"/>
			<point x="-48.0666503906" y="100.0026855469" type="line"/>
			<point x="144.3706665039" y="122.0026855469" type="line"/>
			<point x="280.1567993164" y="760" type="line"/>
			<point x="405.6096191406" y="1363.2369384766" type="line"/>
			<point x="237.1392211914" y="1388.2369384766" type="line"/>
			<point x="246.9290161133" y="1500" type="line"/>
			<point x="781.6867675781" y="1500" type="line" smooth="yes"/>
			<point x="1129.3403930664" y="1500"/>
			<point x="1440.4744262695" y="1086.9774169922"/>
			<point x="1369.4743652344" y="732" type="qcurve" smooth="yes"/>
			<point x="1303.7186889648" y="402.5067749023"/>
			<point x="786.2119140625" y="0"/>
			<point x="478.4835205078" y="0" type="qcurve" smooth="yes"/>
		</contour>
		<contour>
			<point x="313.8747558594" y="113.0374755859" type="line"/>
			<point x="340.9289550781" y="106.0374755859"/>
			<point x="457.8467407227" y="94.0374755859"/>
			<point x="536.9506225586" y="94.0374755859" type="qcurve" smooth="yes"/>
			<point x="789.1561889648" y="94.0374755859"/>
			<point x="1118.0679931641" y="435.2224121094"/>
			<point x="1176.5584716797" y="743" type="qcurve" smooth="yes"/>
			<point x="1234.1036376953" y="1045.4072265625"/>
			<point x="1027.5629272461" y="1386.740234375"/>
			<point x="794.5936279297" y="1386.740234375" type="qcurve" smooth="yes"/>
			<point x="736.9829711914" y="1386.740234375"/>
			<point x="602.8294067383" y="1375.740234375"/>
			<point x="576.2819824219" y="1372.740234375" type="qcurve"/>
			<point x="446.6465454102" y="759" type="line"/>
		</contour>
	</outline>
	<anchor name="bottom" x="686" y="0"/>
	<anchor name="center" x="448" y="754"/>
	<anchor name="top" x="827" y="1500"/>
	<anchor name="liga" x="1431" y="0"/>
</glyph>
<glyph name="E" format="2">
	<unicode hex="0045"/>
	<advance width="1194"/>
	<outline>
		<contour>
			<point x="-63.2102050781" y="0" type="line"/>
			<point x="-49.5975341797" y="101.0026855469" type="line"/>
			<point x="137.3613891602" y="121.0026855469" type="line"/>
			<point x="285.4008789062" y="820" type="line"/>
			<point x="403.4805297852" y="1362.2369384766" type="line"/>
			<point x="229.6083374023" y="1388.2369384766" type="line"/>
			<point x="239.7459716797" y="1500" type="line"/>
			<point x="1240.9383544922" y="1500" type="line"/>
			<point x="1152.6071777344" y="1072.9627685547" type="line"/>
			<point x="1058.444519043" y="1072.9627685547" type="line"/>
			<point x="1063.6644897461" y="1386.5550537109" type="line"/>
			<point x="596.5260620117" y="1386.5550537109" type="line"/>
			<point x="569.5260620117" y="1367.5550537109" type="line"/>
			<point x="446.6372680664" y="784" type="line"/>
			<point x="309.9336547852" y="124.2967529297" type="line"/>
			<point x="334.9336547852" y="100.2967529297" type="line"/>
			<point x="842.046875" y="100.2967529297" type="line"/>
			<point x="1019.1505126953" y="463.8890380859" type="line"/>
			<point x="1115.1531982422" y="463.8890380859" type="line"/>
			<point x="981.7531738281" y="0" type="line"/>
		</contour>
		<contour>
			<point x="355.8805541992" y="727.5924072266" type="line"/>
			<point x="375.3427734375" y="808.3334960938" type="line"/>
			<point x="821.8104248047" y="822.6668701172" type="line"/>
			<point x="913.7829589844" y="1023.2591552734" type="line"/>
			<point x="1016.1859130859" y="1023.2591552734" type="line"/>
			<point x="910.1296386719" y="520.1481933594" type="line"/>
			<point x="816.126953125" y="520.1481933594" type="line"/>
			<point x="809.9143066406" y="713.7404785156" type="line"/>
		</contour>
	</outline>
	<anchor name="bottom" x="518" y="0"/>
	<anchor name="ogonek" x="827" y="0"/>
	<anchor name="top" x="789" y="1500"/>
	<anchor name="tonos" x="81" y="1500"/>
</glyph>
<glyph name="G" format="2">
	<unicode hex="0047"/>
	<advance width="1493"/>
	<outline>
		<contour>
			<point x="78.0421509937" y="756" type="qcurve" smooth="yes"/>
			<point x="159.0421509937" y="1133"/>
			<point x="749.1945557789" y="1510.4435424805"/>
			<point x="986.4884400562" y="1523" type="qcurve" smooth="yes"/>
			<point x="1086.5519776539" y="1524.0045166016"/>
			<point x="1295.8945679859" y="1457.4399414062"/>
			<point x="1318.1855836109" y="1412" type="qcurve" smooth="yes"/>
			<point x="1405.9216239987" y="1500" type="line"/>
			<point x="1460.493584448" y="1500" type="line"/>
			<point x="1346.0343559323" y="1047.4077148438" type="line"/>
			<point x="1241.3114555417" y="1047.4077148438" type="line"/>
			<point x="1239.1172416745" y="1133.9541015625" type="line"/>
			<point x="1230.4025635914" y="1228.1270141602"/>
			<point x="1060.615698357" y="1385.0804443359"/>
			<point x="956.0427613453" y="1398.0734863281" type="qcurve" smooth="yes"/>
			<point x="763.0401368336" y="1428.3549194336"/>
			<point x="356.6822877125" y="1138"/>
			<point x="274.944616814" y="752" type="qcurve" smooth="yes"/>
			<point x="203.7046876148" y="418.8148193359"/>
			<point x="409.4285645679" y="120.2860717773"/>
			<point x="590.7356934742" y="99.7413330078" type="qcurve" smooth="yes"/>
			<point x="721.1512208179" y="82.8036499023"/>
			<point x="1002.3120484547" y="144.8153076172"/>
			<point x="1147.395788689" y="217.4450683594" type="qcurve"/>
			<point x="1227.9674003659" y="584.3172607422" type="line"/>
			<point x="1061.1635673581" y="606.1572875977" type="line"/>
			<point x="1072.8090141355" y="709" type="line"/>
			<point x="1569.7599418698" y="709" type="line"/>
			<point x="1557.7387626706" y="604.3172607422" type="line"/>
			<point x="1398.6970756589" y="585.3172607422" type="line"/>
			<point x="1320.9371879636" y="231.7180175781" type="line"/>
			<point x="1203.1986451343" y="189.3590087891" type="line"/>
			<point x="1072.713354607" y="86.7551269531"/>
			<point x="741.7963013843" y="-43"/>
			<point x="555.5007081226" y="-25" type="qcurve" smooth="yes"/>
			<point x="307.0367799" y="-5.5293579102"/>
			<point x="14.0421509937" y="460"/>
		</contour>
	</outline>
	<anchor name="bottom" x="667" y="0"/>
	<anchor name="top" x="907" y="1492"/>
</glyph>
<glyph name="I" format="2">
	<unicode hex="0049"/>
	<advance width="779"/>
	<outline>
		<contour>
			<point x="-40.2774658203" y="0" type="line"/>
			<point x="-24.6647949219" y="98.6827392578" type="line"/>
			<point x="174.4246826172" y="126.6827392578" type="line"/>
			<point x="330.5586547852" y="825" type="line"/>
			<point x="438.3314208984" y="1359.2369384766" type="line"/>
			<point x="258.2367553711" y="1389.2369384766" type="line"/>
			<point x="267.6787109375" y="1500" type="line"/>
			<point x="818.6311645508" y="1500" type="line"/>
			<point x="796.310546875" y="1389.2369384766" type="line"/>
			<point x="612.2210693359" y="1359.2369384766" type="line"/>
			<point x="496.5416870117" y="810" type="line"/>
			<point x="345.1543579102" y="125.6827392578" type="line"/>
			<point x="542.8092651367" y="100.6827392578" type="line"/>
			<point x="525.1965942383" y="0" type="line"/>
		</contour>
	</outline>
	<anchor name="bottom" x="220" y="0"/>
	<anchor name="ogonek" x="356" y="0"/>
	<anchor name="top" x="503" y="1500"/>
	<anchor name="tonos" x="81" y="1500"/>
	<anchor name="yu_dash" x="365" y="795"/>
	<anchor name="liga" x="712" y="0"/>
</glyph>
<glyph name="J" format="2">
	<unicode hex="004A"/>
	<advance width="795"/>
	<outline>
		<contour>
			<point x="-149.078125" y="-307.7805175781" type="qcurve"/>
			<point x="-118.1890869141" y="-184.0021972656" type="line"/>
			<point x="-98.2607421875" y="-182.7429199219"/>
			<point x="-54.2977905273" y="-188.9281005859"/>
			<point x="-13.7087402344" y="-188.9281005859" type="qcurve" smooth="yes"/>
			<point x="80.3438720703" y="-188.9281005859"/>
			<point x="169.1419677734" y="-114.0408935547"/>
			<point x="197.1419677734" y="22.9975585938" type="qcurve" smooth="yes"/>
			<point x="352.1809082031" y="781" type="line"/>
			<point x="465.7003173828" y="1361.2369384766" type="line"/>
			<point x="296.8229370117" y="1388.2369384766" type="line"/>
			<point x="305.2648925781" y="1500" type="line"/>
			<point x="844.6879882812" y="1500" type="line"/>
			<point x="828.2460327148" y="1388.2369384766" type="line"/>
			<point x="634.6833496094" y="1361.2369384766" type="line"/>
			<point x="515.1639404297" y="763" type="line"/>
			<point x="368.125" y="15.9975585938" type="line" smooth="yes"/>
			<point x="341.125" y="-117.0793457031"/>
			<point x="150.1368408203" y="-313.7805175781"/>
			<point x="2.2100830078" y="-313.7805175781" type="qcurve" smooth="yes"/>
			<point x="-46.0803222656" y="-313.7805175781"/>
			<point x="-135.9454956055" y="-308.3360595703"/>
		</contour>
	</outline>
	<anchor name="bottom" x="376" y="-208"/>
	<anchor name="top" x="533" y="1500"/>
	<anchor name="_liga" x="0" y="0"/>
</glyph>
<glyph name="K" format="2">
	<unicode hex="004B"/>
	<advance width="1179"/>
	<outline>
		<contour>
			<point x="-42.5596313477" y="0" type="line"/>
			<point x="-39.4777832031" y="100.0026855469" type="line"/>
			<point x="139.9595336914" y="125.0026855469" type="line"/>
			<point x="295.3992919922" y="818" type="line"/>
			<point x="415.4789428711" y="1361.2369384766" type="line"/>
			<point x="242.9545898438" y="1388.2369384766" type="line"/>
			<point x="251.3965454102" y="1500" type="line"/>
			<point x="798.7924804688" y="1500" type="line"/>
			<point x="778.3505249023" y="1388.2369384766" type="line"/>
			<point x="588.4351196289" y="1361.2369384766" type="line"/>
			<point x="459.8756103516" y="802" type="line"/>
			<point x="311" y="124" type="line"/>
			<point x="480.4039916992" y="100.0026855469" type="line"/>
			<point x="473.3221435547" y="0" type="line"/>
		</contour>
		<contour>
			<point x="303" y="540" type="line"/>
			<point x="331" y="693" type="line"/>
			<point x="987.7775268555" y="1366.2369384766" type="line"/>
			<point x="790.1673583984" y="1388.2369384766" type="line"/>
			<point x="801.6093139648" y="1500" type="line"/>
			<point x="1351.1207275391" y="1500" type="line"/>
			<point x="1338.6787719727" y="1388.2369384766" type="line"/>
			<point x="1132.1115112305" y="1365.2369384766" type="line"/>
		</contour>
		<contour>
			<point x="589" y="874" type="line"/>
			<point x="717" y="993" type="line"/>
			<point x="963.0494384766" y="125.0026855469" type="line"/>
			<point x="1141.3558959961" y="101.0026855469" type="line"/>
			<point x="1133.2740478516" y="0" type="line"/>
			<point x="597.2119750977" y="0" type="line"/>
			<point x="604.2938232422" y="100.0026855469" type="line"/>
			<point x="875" y="124" type="line"/>
		</contour>
	</outline>
	<anchor name="bottom" x="607" y="0"/>
	<anchor name="top" x="896" y="1500"/>
	<anchor name="kai_tail" x="1201" y="100"/>
</glyph>
<glyph name="N" format="2">
	<unicode hex="004E"/>
	<advance width="1524"/>
	<outline>
		<contour>
			<point x="-96.1000366211" y="0" type="line"/>
			<point x="-90.0181884766" y="100.0026855469" type="line"/>
			<point x="123.419128418" y="124.0026855469" type="line"/>
			<point x="270.8588867188" y="749" type="line"/>
			<point x="408.9385375977" y="1352.2369384766" type="line"/>
			<point x="208.892578125" y="1390.2369384766" type="line"/>
			<point x="227.3345336914" y="1500" type="line"/>
			<point x="600.2229003906" y="1500" type="line"/>
			<point x="858.1694335938" y="728.6386108398" type="line"/>
			<point x="958" y="418" type="line"/>
			<point x="990" y="317" type="line"/>
			<point x="1001" y="319" type="line"/>
			<point x="1024" y="440" type="line"/>
			<point x="1166.2401123047" y="753" type="line"/>
			<point x="1292.6397094727" y="1360.3969116211" type="line"/>
			<point x="1061.3326416016" y="1388.3969116211" type="line"/>
			<point x="1069.4981689453" y="1500" type="line"/>
			<point x="1629.7470092773" y="1500" type="line"/>
			<point x="1621.5814819336" y="1388.3969116211" type="line"/>
			<point x="1398.4920043945" y="1360.3969116211" type="line"/>
			<point x="1268.9951171875" y="752" type="line"/>
			<point x="1120.0924072266" y="0" type="line"/>
			<point x="987.3381958008" y="0" type="line"/>
			<point x="711.7720336914" y="650.6087036133" type="line"/>
			<point x="507" y="1220" type="line"/>
			<point x="471" y="1324" type="line"/>
			<point x="461" y="1321" type="line"/>
			<point x="442" y="1199" type="line"/>
			<point x="369.8963623047" y="742" type="line"/>
			<point x="227.4566040039" y="124.0026855469" type="line"/>
			<point x="481.6331176758" y="100.0026855469" type="line"/>
			<point x="475.5512695312" y="0" type="line"/>
		</contour>
	</outline>
	<anchor name="bottom" x="640" y="0"/>
	<anchor name="top" x="884" y="1500"/>
	<anchor name="engtail" x="1041" y="0"/>
	<anchor name="liga" x="1432" y="0"/>
</glyph>
<glyph name="O" format="2">
	<unicode hex="004F"/>
	<advance width="1529"/>
	<outline>
		<contour>
			<point x="90.3767638607" y="803" type="qcurve" smooth="yes"/>
			<point x="165.3767638607" y="1136"/>
			<point x="706.8908629818" y="1570.7695922852"/>
			<point x="999.8292785091" y="1520" type="qcurve" smooth="yes"/>
			<point x="1265.2470031185" y="1473.4883422852"/>
			<point x="1540.6577086849" y="1073.7466430664"/>
			<point x="1469.6577086849" y="740" type="qcurve" smooth="yes"/>
			<point x="1388.6577086849" y="362"/>
			<point x="850.1509351537" y="-55.9040041264"/>
			<point x="567.7344298763" y="-20" type="qcurve" smooth="yes"/>
			<point x="307.8681907049" y="13.5618375665"/>
			<point x="13.3767638607" y="461"/>
		</contour>
		<contour>
			<point x="285.7859435482" y="799" type="qcurve" smooth="yes"/>
			<point x="210.7421813412" y="482.6654052734"/>
			<point x="397.7155089779" y="117.4324951172"/>
			<point x="595.4752746029" y="91.3338623047" type="qcurve" smooth="yes"/>
			<point x="833.5216613216" y="59.4432373047"/>
			<point x="1207.0256896419" y="457.8697509766"/>
			<point x="1273.2619567318" y="755" type="qcurve" smooth="yes"/>
			<point x="1338.9899230404" y="1052.2158203125"/>
			<point x="1162.5453429623" y="1373.8220214844"/>
			<point x="952.9935851498" y="1407.8513183594" type="qcurve" smooth="yes"/>
			<point x="728.7885070248" y="1444.8112792969"/>
			<point x="356.2742858334" y="1105.9948730469"/>
		</contour>
	</outline>
	<anchor name="bottom" x="612" y="0"/>
	<anchor name="center" x="765" y="756"/>
	<anchor name="ogonek" x="844" y="0"/>
	<anchor name="top" x="906" y="1500"/>
	<anchor name="topright" x="1044" y="1500"/>
	<anchor name="tonos" x="230" y="1500"/>
	<anchor name="_yu_dash" x="174" y="795"/>
</glyph>
<glyph name="P" format="2">
	<unicode hex="0050"/>
	<advance width="1261"/>
	<outline>
		<contour>
			<point x="-46.3077392578" y="0" type="line"/>
			<point x="-44.2258911133" y="100.0026855469" type="line"/>
			<point x="132.5592651367" y="124.0026855469" type="line"/>
			<point x="256" y="754" type="line"/>
			<point x="405.0786743164" y="1359.2369384766" type="line"/>
			<point x="226.6848754883" y="1388.2369384766" type="line"/>
			<point x="236.8225097656" y="1500" type="line"/>
			<point x="826.904296875" y="1500" type="line" smooth="yes"/>
			<point x="1057.9948730469" y="1500"/>
			<point x="1272.5816650391" y="1291"/>
			<point x="1242.5950927734" y="1118" type="qcurve" smooth="yes"/>
			<point x="1210.6085205078" y="933"/>
			<point x="896.6869506836" y="639.5921630859"/>
			<point x="707.5118408203" y="639.5921630859" type="qcurve" smooth="yes"/>
			<point x="583.3643798828" y="639.5921630859"/>
			<point x="404.9237060547" y="667.6250610352"/>
			<point x="317" y="628" type="qcurve"/>
			<point x="337" y="733" type="line"/>
			<point x="441.1526489258" y="761.4798583984"/>
			<point x="577.082824707" y="737"/>
			<point x="680.3002929688" y="737" type="qcurve" smooth="yes"/>
			<point x="842.5362548828" y="737"/>
			<point x="1017.6657714844" y="916"/>
			<point x="1049.6657714844" y="1097" type="qcurve" smooth="yes"/>
			<point x="1080.6657714844" y="1273"/>
			<point x="919.400390625" y="1388.1846923828"/>
			<point x="732.2654418945" y="1388.1846923828" type="qcurve" smooth="yes"/>
			<point x="589.8242797852" y="1388.1846923828" type="line"/>
			<point x="565.6653442383" y="1367.231262207" type="line"/>
			<point x="419" y="764" type="line"/>
			<point x="300.5422973633" y="122.0026855469" type="line"/>
			<point x="515.5015258789" y="100.0026855469" type="line"/>
			<point x="507.4196777344" y="0" type="line"/>
		</contour>
	</outline>
	<anchor name="bottom" x="634" y="0"/>
	<anchor name="top" x="634" y="1500"/>
</glyph>
<glyph name="Q" format="2">
	<unicode hex="0051"/>
	<advance width="1531"/>
	<outline>
		<contour>
			<point x="88.9991455078" y="803" type="qcurve" smooth="yes"/>
			<point x="156.9991455078" y="1136"/>
			<point x="706.5132446289" y="1574.7695922852"/>
			<point x="1001.4516601562" y="1520" type="qcurve" smooth="yes"/>
			<point x="1266.8693847656" y="1469.4883422852"/>
			<point x="1539.5289916992" y="1073"/>
			<point x="1470.280090332" y="740" type="qcurve" smooth="yes"/>
			<point x="1388.0311889648" y="353"/>
			<point x="815.0816040039" y="-39.5878295898"/>
			<point x="577.5609130859" y="-15" type="qcurve" smooth="yes"/>
			<point x="342.4238891602" y="10.8142700195"/>
			<point x="16.9991455078" y="449"/>
		</contour>
		<contour>
			<point x="285.4083251953" y="799" type="qcurve" smooth="yes"/>
			<point x="214.9916381836" y="470.6654052734"/>
			<point x="402.0625" y="113.1199951172"/>
			<point x="599.3569335938" y="86.5560302734" type="qcurve" smooth="yes"/>
			<point x="837.4033203125" y="54.6654052734"/>
			<point x="1206.7720947266" y="448.0562133789"/>
			<point x="1272.8843383789" y="755" type="qcurve" smooth="yes"/>
			<point x="1336.48828125" y="1051.8428955078"/>
			<point x="1164.7023925781" y="1373.8220214844"/>
			<point x="955.6159667969" y="1410.8513183594" type="qcurve" smooth="yes"/>
			<point x="731.4108886719" y="1450.8112792969"/>
			<point x="349.2695922852" y="1105.9948730469"/>
		</contour>
		<contour>
			<point x="428.3126831055" y="-29.8395996094" type="qcurve"/>
			<point x="431.2590332031" y="-49.7585449219" type="line"/>
			<point x="1011.1880493164" y="-254.5670166016" type="line" smooth="yes"/>
			<point x="1036.5861816406" y="-252.075012207"/>
			<point x="1122.0001831055" y="-178.2549438477"/>
			<point x="1159.6618652344" y="-152.6130981445" type="qcurve"/>
			<point x="1222.2502441406" y="-205.8771362305" type="line"/>
			<point x="1171.1960449219" y="-283.4245605469"/>
			<point x="1033.9702758789" y="-402.4041137695"/>
			<point x="982.544128418" y="-429.1104736328" type="qcurve"/>
			<point x="401.3529663086" y="-218.6095581055" type="line"/>
			<point x="379.9535522461" y="-244.8697509766"/>
			<point x="274.7982177734" y="-248.5317993164"/>
			<point x="202.350769043" y="-300.1674194336" type="qcurve"/>
			<point x="161.1951904297" y="-244.3803100586" type="line"/>
			<point x="186.5209960938" y="-205.135925293"/>
			<point x="321.4712524414" y="-84.4471435547"/>
		</contour>
		<contour>
			<point x="340.3043823242" y="-66.8956298828" type="line"/>
			<point x="427.005859375" y="-19.4124145508"/>
			<point x="517.3468017578" y="69.7471923828"/>
			<point x="580.8834228516" y="149.5403442383" type="qcurve" smooth="yes"/>
			<point x="585.3739013672" y="162.3831176758"/>
			<point x="590.3043212891" y="183.96484375"/>
			<point x="600.8942260742" y="194.4093017578" type="qcurve"/>
			<point x="622.2556762695" y="182.7407836914"/>
			<point x="661.6361694336" y="138.6213989258"/>
			<point x="673.4049682617" y="126.0197143555" type="qcurve"/>
			<point x="669.5765991211" y="114.7559204102"/>
			<point x="655.6904296875" y="86.8968505859"/>
			<point x="647.0725708008" y="68.4289550781" type="qcurve" smooth="yes"/>
			<point x="576.8620605469" y="-13.6685791016"/>
			<point x="495.1137084961" y="-63.8557128906"/>
			<point x="399.2396240234" y="-116.1415405273" type="qcurve"/>
		</contour>
	</outline>
	<anchor name="bottom" x="832" y="0"/>
	<anchor name="top" x="832" y="1500"/>
</glyph>
<glyph name="T" format="2">
	<unicode hex="0054"/>
	<advance width="1193"/>
	<outline>
		<contour>
			<point x="117.8120117188" y="1100.5584716797" type="line"/>
			<point x="200.2468261719" y="1500" type="line"/>
			<point x="1327.5986938477" y="1500" type="line"/>
			<point x="1245.1638793945" y="1100.5584716797" type="line"/>
			<point x="1144.1611938477" y="1100.5584716797" type="line"/>
			<point x="1172.4860229492" y="1384.5550537109" type="line"/>
			<point x="856.3120117188" y="1384.5550537109" type="line"/>
			<point x="829.3120117188" y="1372.5550537109" type="line"/>
			<point x="700.6631469727" y="754" type="line"/>
			<point x="561.463684082" y="120.0026855469" type="line"/>
			<point x="748.9077148438" y="100.0026855469" type="line"/>
			<point x="741.0137329102" y="0" type="line"/>
			<point x="171.6911010742" y="0" type="line"/>
			<point x="172.5850830078" y="100.0026855469" type="line"/>
			<point x="384.4940795898" y="120.0026855469" type="line"/>
			<point x="531.9334716797" y="754" type="line"/>
			<point x="656.5823364258" y="1372.5550537109" type="line"/>
			<point x="639.5823364258" y="1384.5550537109" type="line"/>
			<point x="305.1370849609" y="1384.5550537109" type="line"/>
			<point x="218.8146972656" y="1100.5584716797" type="line"/>
		</contour>
	</outline>
	<anchor name="bottom" x="451" y="0"/>
	<anchor name="center" x="584" y="750"/>
	<anchor name="top" x="732" y="1500"/>
	<anchor name="cy_descender" x="755" y="100"/>
</glyph>
<glyph name="U" format="2">
	<unicode hex="0055"/>
	<advance width="1507"/>
	<outline>
		<contour>
			<point x="253.962890625" y="1390.2369384766" type="line"/>
			<point x="265.5927124023" y="1500" type="line"/>
			<point x="807.3420521129" y="1500" type="line"/>
			<point x="795.7122303356" y="1390.2369384766" type="line"/>
			<point x="616.2845458984" y="1361.2369384766" type="line"/>
			<point x="471.5784912109" y="801" type="line" smooth="yes"/>
			<point x="444.2451782227" y="692.1599731445"/>
			<point x="359.2141113281" y="302"/>
			<point x="357.0718494762" y="228" type="qcurve" smooth="yes"/>
			<point x="360.2201538086" y="204.412109375"/>
			<point x="511.6790272106" y="112.7675170898"/>
			<point x="631.2302357067" y="112.7675170898" type="qcurve" smooth="yes"/>
			<point x="823.2283436169" y="112.7675170898"/>
			<point x="1052.5824695934" y="269.7039794922"/>
			<point x="1083.7317615856" y="405" type="qcurve" smooth="yes"/>
			<point x="1162.1224476208" y="758" type="line"/>
			<point x="1295.3620716442" y="1361.2369384766" type="line"/>
			<point x="1095.8377186169" y="1390.2369384766" type="line"/>
			<point x="1107.0039783825" y="1500" type="line"/>
			<point x="1641.8257557262" y="1500" type="line"/>
			<point x="1630.1959339489" y="1390.2369384766" type="line"/>
			<point x="1420.5848499645" y="1361.2369384766" type="line"/>
			<point x="1278.1779285778" y="754" type="line"/>
			<point x="1206.8075672497" y="412" type="line" smooth="yes"/>
			<point x="1164.4372059215" y="204"/>
			<point x="862.1250110973" y="-18"/>
			<point x="580.4350696911" y="-18" type="qcurve" smooth="yes"/>
			<point x="411.6593128551" y="-18"/>
			<point x="176.1350708008" y="112"/>
			<point x="173.9867664684" y="216" type="qcurve" smooth="yes"/>
			<point x="175.1290283203" y="286"/>
			<point x="291.5954589844" y="753.2533569336"/>
			<point x="301.5954589844" y="798" type="qcurve" smooth="yes"/>
			<point x="438.8350830078" y="1361.2369384766" type="line"/>
		</contour>
	</outline>
	<anchor name="bottom" x="588" y="0"/>
	<anchor name="ogonek" x="810" y="0"/>
	<anchor name="top" x="908" y="1500"/>
	<anchor name="topright" x="1561" y="1500"/>
</glyph>
<glyph name="V" format="2">
	<unicode hex="0056"/>
	<advance width="1183"/>
	<outline>
		<contour>
			<point x="20.7299804688" y="1383.2369384766" type="line"/>
			<point x="41.6748657227" y="1500" type="line"/>
			<point x="603.6968994141" y="1500" type="line"/>
			<point x="582.7520141602" y="1384.2369384766" type="line"/>
			<point x="363.6490478516" y="1359.2369384766" type="line"/>
			<point x="405.5947265625" y="818.0357666016" type="line"/>
			<point x="431.5688476562" y="291.1775512695" type="line"/>
			<point x="433.8276977539" y="178.0383300781" type="line"/>
			<point x="440.8276977539" y="178.0383300781" type="line"/>
			<point x="499.3336791992" y="284.9119873047" type="line"/>
			<point x="812.7194213867" y="902.1952514648" type="line"/>
			<point x="1090.5321655273" y="1356.2369384766" type="line"/>
			<point x="884.6989135742" y="1383.2369384766" type="line"/>
			<point x="899.1408691406" y="1500" type="line"/>
			<point x="1450.3106079102" y="1500" type="line"/>
			<point x="1441.6834716797" y="1383.2369384766" type="line"/>
			<point x="1199.7297363281" y="1353.2369384766" type="line"/>
			<point x="878.8508911133" y="801.0252075195" type="line"/>
			<point x="429.6088867188" y="-5" type="line"/>
			<point x="314.1342163086" y="-5" type="line"/>
			<point x="248.8338623047" y="741.0093994141" type="line"/>
			<point x="212.6744995117" y="1356.2369384766" type="line"/>
		</contour>
	</outline>
	<anchor name="bottom" x="373" y="0"/>
	<anchor name="top" x="743" y="1500"/>
</glyph>
<glyph name="W" format="2">
	<unicode hex="0057"/>
	<advance width="1775"/>
	<outline>
		<contour>
			<point x="-6.439453125" y="1387.2369384766" type="line"/>
			<point x="12.0690307617" y="1498" type="line"/>
			<point x="576.1883544922" y="1502" type="line"/>
			<point x="558.6798706055" y="1389.2369384766" type="line"/>
			<point x="365.7647705078" y="1357.2369384766" type="line"/>
			<point x="367.8671264648" y="806.837097168" type="line"/>
			<point x="367.1803588867" y="291.5092773438" type="line"/>
			<point x="361.6811523438" y="198.9478149414" type="line"/>
			<point x="364.6811523438" y="197.9478149414" type="line"/>
			<point x="434.0017700195" y="281.9252929688" type="line"/>
			<point x="633.5286865234" y="584.8756103516" type="line"/>
			<point x="901.067565918" y="995.7145996094" type="line"/>
			<point x="887.0205688477" y="1365.9571533203" type="line"/>
			<point x="725.2360229492" y="1390.9571533203" type="line"/>
			<point x="740.8765869141" y="1503" type="line"/>
			<point x="1252.4420166016" y="1506" type="line"/>
			<point x="1237.4971313477" y="1393.2369384766" type="line"/>
			<point x="1044.9733886719" y="1360.2369384766" type="line"/>
			<point x="1078.5923461914" y="796.6557006836" type="line"/>
			<point x="1097.3110351562" y="289.4964599609" type="line"/>
			<point x="1101.9149780273" y="200.201171875" type="line"/>
			<point x="1104.9149780273" y="199.201171875" type="line"/>
			<point x="1156.087890625" y="285.1361083984" type="line"/>
			<point x="1416.4473876953" y="813.1883544922" type="line"/>
			<point x="1645.9287109375" y="1343.2369384766" type="line"/>
			<point x="1422.1000366211" y="1389.2369384766" type="line"/>
			<point x="1430.5419921875" y="1500" type="line"/>
			<point x="2006.2295532227" y="1500" type="line"/>
			<point x="1998.7875976562" y="1388.3969116211" type="line"/>
			<point x="1795.8724975586" y="1342.3969116211" type="line"/>
			<point x="1502.0108032227" y="751.7008666992" type="line"/>
			<point x="1068.8474121094" y="2" type="line"/>
			<point x="967.4291381836" y="1" type="line"/>
			<point x="929.6640014648" y="931.46484375" type="line"/>
			<point x="924.7515869141" y="1010.8154907227" type="line"/>
			<point x="923.7515869141" y="1010.8154907227" type="line"/>
			<point x="803.4297485352" y="743.8251953125" type="line"/>
			<point x="306.5674438477" y="-2" type="line"/>
			<point x="222.0537109375" y="-2" type="line"/>
			<point x="213.9025878906" y="745.2998657227" type="line"/>
			<point x="198.3018798828" y="1357.2369384766" type="line"/>
		</contour>
	</outline>
	<anchor name="bottom" x="691" y="0"/>
	<anchor name="top" x="981" y="1500"/>
</glyph>
<glyph name="X" format="2">
	<unicode hex="0058"/>
	<advance width="1272"/>
	<outline>
		<contour>
			<point x="-244.1595458984" y="0" type="line"/>
			<point x="-238.0776977539" y="100.0026855469" type="line"/>
			<point x="-29.5104370117" y="120.0026855469" type="line"/>
			<point x="513" y="764" type="line"/>
			<point x="299.9273071289" y="1365.2369384766" type="line"/>
			<point x="119.0557250977" y="1388.2369384766" type="line"/>
			<point x="128.4976806641" y="1500" type="line"/>
			<point x="667.7274780273" y="1500" type="line"/>
			<point x="657.2855224609" y="1388.2369384766" type="line"/>
			<point x="488.4574584961" y="1365.2369384766" type="line"/>
			<point x="581" y="1027" type="line"/>
			<point x="627" y="913" type="line"/>
			<point x="638" y="913" type="line"/>
			<point x="724" y="1027" type="line"/>
			<point x="1099.8735961914" y="1344.2369384766" type="line"/>
			<point x="897.5671386719" y="1388.2369384766" type="line"/>
			<point x="908.0090942383" y="1500" type="line"/>
			<point x="1455.9958496094" y="1500" type="line"/>
			<point x="1446.553894043" y="1388.2369384766" type="line"/>
			<point x="1235.5082397461" y="1346.2369384766" type="line"/>
			<point x="670" y="808" type="line"/>
			<point x="1031.2634277344" y="121.0026855469" type="line"/>
			<point x="1224.9177246094" y="100.0026855469" type="line"/>
			<point x="1217.8358764648" y="0" type="line"/>
			<point x="642.3397216797" y="0" type="line"/>
			<point x="649.4215698242" y="100.0026855469" type="line"/>
			<point x="843.5974731445" y="120.0026855469" type="line"/>
			<point x="603" y="544" type="line"/>
			<point x="556" y="658" type="line"/>
			<point x="546" y="658" type="line"/>
			<point x="461" y="544" type="line"/>
			<point x="111.124206543" y="125.0026855469" type="line"/>
			<point x="311.4306640625" y="100.0026855469" type="line"/>
			<point x="303.0920410156" y="0" type="line"/>
		</contour>
	</outline>
	<anchor name="bottom" x="453" y="0"/>
	<anchor name="top" x="723" y="1500"/>
	<anchor name="cy_descender" x="1125" y="100"/>
	<anchor name="center" x="591" y="791"/>
</glyph>
<glyph name="b" format="2">
	<unicode hex="0062"/>
	<advance width="909"/>
	<outline>
		<contour>
			<point x="42.7663574219" y="163" type="qcurve" smooth="yes"/>
			<point x="130.0484008789" y="594" type="line"/>
			<point x="288.1984863281" y="1431.9958496094" type="line"/>
			<point x="131.0775146484" y="1431.9958496094" type="line"/>
			<point x="157.2596435547" y="1513.1784667969" type="line"/>
			<point x="398.714050293" y="1554.1784667969" type="line"/>
			<point x="486.9449462891" y="1505.8450317383" type="line"/>
			<point x="292.5614624023" y="585" type="line"/>
			<point x="191.2794189453" y="100" type="line" smooth="yes"/>
			<point x="188.1858520508" y="86.53515625"/>
			<point x="194.7340698242" y="115.9309082031"/>
			<point x="194.3251342773" y="115.9309082031" type="qcurve" smooth="yes"/>
			<point x="502.5353393555" y="115.9309082031"/>
			<point x="798.6137695312" y="429.4600830078"/>
			<point x="801.6547851562" y="698.7849121094" type="qcurve" smooth="yes"/>
			<point x="805.5141601562" y="806.482421875"/>
			<point x="738.9694824219" y="865.5981445312"/>
			<point x="658.2619628906" y="865.5981445312" type="qcurve" smooth="yes"/>
			<point x="528.6700439453" y="865.5981445312"/>
			<point x="263.7613525391" y="664.4616088867"/>
			<point x="223.0498657227" y="602.497253418" type="qcurve"/>
			<point x="242.791809082" y="736.8157958984" type="line"/>
			<point x="243.1561279297" y="780.4771118164"/>
			<point x="628.8004760742" y="1005.7849121094"/>
			<point x="743.947265625" y="1005.7849121094" type="qcurve" smooth="yes"/>
			<point x="838.0469970703" y="1005.7849121094"/>
			<point x="980.3231811523" y="861.7849121094"/>
			<point x="978.3729858398" y="693.7849121094" type="qcurve" smooth="yes"/>
			<point x="980.6874389648" y="426.4600830078"/>
			<point x="535.7657470703" y="-12"/>
			<point x="181.3461303711" y="-12" type="qcurve" smooth="yes"/>
			<point x="109.1044311523" y="-12"/>
			<point x="23.7663574219" y="72"/>
		</contour>
	</outline>
	<anchor name="bottom" x="571" y="0"/>
	<anchor name="top" x="571" y="1533"/>
</glyph>
<glyph name="c" format="2">
	<unicode hex="0063"/>
	<advance width="843"/>
	<outline>
		<contour>
			<point x="9.1235351562" y="492.4061279297" type="qcurve" smooth="yes"/>
			<point x="55.8803710938" y="732.4334716797"/>
			<point x="377.7734375" y="1022.8122558594"/>
			<point x="572.5694580078" y="1022.8122558594" type="qcurve" smooth="yes"/>
			<point x="685.419128418" y="1022.8122558594"/>
			<point x="855.500793457" y="933.8122558594"/>
			<point x="855.500793457" y="880.8122558594" type="qcurve" smooth="yes"/>
			<point x="855.500793457" y="836.8122558594"/>
			<point x="766.9878540039" y="785.8122558594"/>
			<point x="700.1416015625" y="768.8122558594" type="qcurve"/>
			<point x="668.2697753906" y="768.8122558594" type="line"/>
			<point x="668.2697753906" y="926.8122558594" type="line" smooth="yes"/>
			<point x="668.2697753906" y="967.8122558594"/>
			<point x="587.5576171875" y="904.7883300781"/>
			<point x="530.2431640625" y="903.7883300781" type="qcurve" smooth="yes"/>
			<point x="412.5671386719" y="901.7883300781"/>
			<point x="216.4190673828" y="703.6226806641"/>
			<point x="175.6622314453" y="487.4061279297" type="qcurve" smooth="yes"/>
			<point x="138.0946044922" y="280.5679931641"/>
			<point x="242.951965332" y="132.5588378906"/>
			<point x="372.6848144531" y="122.5588378906" type="qcurve" smooth="yes"/>
			<point x="516.3403930664" y="110.5588378906"/>
			<point x="678.6160888672" y="197.7214355469"/>
			<point x="729.6582641602" y="247.279296875" type="qcurve"/>
			<point x="785.7261352539" y="194.7673339844" type="line"/>
			<point x="785.7261352539" y="150.46484375" type="line"/>
			<point x="732.0263671875" y="120.7600097656"/>
			<point x="460.0853881836" y="-19"/>
			<point x="303.6017456055" y="-8" type="qcurve" smooth="yes"/>
			<point x="123.6130981445" y="3"/>
			<point x="-37.0386962891" y="258.1625976562"/>
		</contour>
	</outline>
	<anchor name="bottom" x="343" y="0"/>
	<anchor name="top" x="600" y="1000"/>
</glyph>
<glyph name="f" format="2">
	<unicode hex="0066"/>
	<advance width="420"/>
	<outline>
		<contour>
			<point x="-468.1547851562" y="-356" type="line" smooth="yes"/>
			<point x="-463.470703125" y="-264.5444335938" type="line"/>
			<point x="-365.3159179688" y="-256.3684692383" type="line" smooth="yes"/>
			<point x="-146.1904296875" y="-248.1925048828"/>
			<point x="22.3382568359" y="5.8646240234"/>
			<point x="95.1915283203" y="403.8646240234" type="qcurve" smooth="yes"/>
			<point x="192.4323730469" y="930.2370605469" type="line"/>
			<point x="204.6019287109" y="963.1674804688" type="line"/>
			<point x="224.5098876953" y="1114.3547363281" type="line" smooth="yes"/>
			<point x="260.6399536133" y="1340.4644165039"/>
			<point x="500.3499755859" y="1555.3547363281"/>
			<point x="633.4171142578" y="1557.3547363281" type="qcurve" smooth="yes"/>
			<point x="711.1850585938" y="1558.3547363281"/>
			<point x="828.3348388672" y="1514.3547363281"/>
			<point x="828.3348388672" y="1486.3547363281" type="qcurve" smooth="yes"/>
			<point x="828.3348388672" y="1462.3547363281"/>
			<point x="778.7963256836" y="1430.3547363281"/>
			<point x="753.7963256836" y="1430.3547363281" type="qcurve" smooth="yes"/>
			<point x="728.7963256836" y="1430.3547363281"/>
			<point x="711.7963256836" y="1453.3547363281"/>
			<point x="708.7963256836" y="1483.3547363281" type="qcurve" smooth="yes"/>
			<point x="706.7963256836" y="1413.935546875"/>
			<point x="676.8645629883" y="1422.7028808594"/>
			<point x="641.3829956055" y="1422.7028808594" type="qcurve" smooth="yes"/>
			<point x="563.1834106445" y="1422.7028808594"/>
			<point x="401.1036987305" y="1271.4646606445"/>
			<point x="370.0250854492" y="1067.3547363281" type="qcurve" smooth="yes"/>
			<point x="365.884765625" y="966.5395507812" type="line"/>
			<point x="369.602722168" y="943.3068847656" type="line"/>
			<point x="309.0482177734" y="653" type="line" smooth="yes"/>
			<point x="199.2698364258" y="92.7221679688"/>
			<point x="-66.0233154297" y="-392.403137207"/>
			<point x="-301.1958007812" y="-392" type="qcurve"/>
		</contour>
		<contour>
			<point x="55.1832275391" y="888.8647460938" type="line"/>
			<point x="52.7413330078" y="962.7255859375" type="line"/>
			<point x="213.4622802734" y="995.7722167969" type="line"/>
			<point x="543.4844360352" y="1020.9118652344" type="line"/>
			<point x="535.3215942383" y="903.4228515625" type="line"/>
			<point x="302.2316894531" y="898.8415527344" type="line"/>
			<point x="223.7700195312" y="885.3549194336" type="line"/>
		</contour>
	</outline>
	<anchor name="bottom" x="217" y="0"/>
	<anchor name="top" x="554" y="1536"/>
</glyph>
<glyph name="h" format="2">
	<unicode hex="0068"/>
	<advance width="1038"/>
	<outline>
		<contour>
			<point x="34.3255004883" y="-18.3590087891" type="line"/>
			<point x="5.8895874023" y="27.4358520508" type="line"/>
			<point x="132.8126831055" y="546.6409301758" type="line"/>
			<point x="301.8749389648" y="1420.4555664062" type="line"/>
			<point x="105.3214111328" y="1432.8193359375" type="line"/>
			<point x="130.5035400391" y="1512.001953125" type="line"/>
			<point x="406.1374511719" y="1563.6686401367" type="line"/>
			<point x="491.9182128906" y="1515.3352050781" type="line"/>
			<point x="299.5308837891" y="582.7435913086" type="line"/>
			<point x="198.9924316406" y="78.7435913086" type="line"/>
			<point x="219.248840332" y="19" type="line"/>
		</contour>
		<contour>
			<point x="744.2230834961" y="-7.4871826172" type="line"/>
			<point x="673.7102050781" y="111.2308959961" type="line"/>
			<point x="840.8369140625" y="834.0278320312" type="line" smooth="yes"/>
			<point x="837.6042480469" y="809.1467285156"/>
			<point x="779.4086303711" y="875.8178710938"/>
			<point x="709.0266723633" y="875.8178710938" type="qcurve" smooth="yes"/>
			<point x="586.9850463867" y="875.8178710938"/>
			<point x="337.7523193359" y="703.7835083008"/>
			<point x="240.3675537109" y="571.748046875" type="qcurve"/>
			<point x="257.3432617188" y="718.1906738281" type="line"/>
			<point x="371.1582641602" y="867.4996948242"/>
			<point x="685.3954467773" y="1020.1906738281"/>
			<point x="817.8244018555" y="1020.1906738281" type="qcurve" smooth="yes"/>
			<point x="919.4399414062" y="1020.1906738281"/>
			<point x="1023.7821655273" y="894.3159790039"/>
			<point x="1002.6511230469" y="809.1906738281" type="qcurve" smooth="yes"/>
			<point x="837.8970947266" y="136.0009765625" type="line"/>
			<point x="967.4724121094" y="162.0009765625" type="line"/>
			<point x="967.4724121094" y="73" type="line"/>
		</contour>
	</outline>
	<anchor name="bottom" x="420" y="0"/>
	<anchor name="center" x="347" y="1202"/>
	<anchor name="top" x="424" y="1534"/>
</glyph>
<glyph name="k" format="2">
	<unicode hex="006B"/>
	<advance width="917"/>
	<outline>
		<contour>
			<point x="381.145690918" y="409.9555664062" type="line"/>
			<point x="117.2400512695" y="152.1390991211" type="line"/>
			<point x="132.3554077148" y="258.0601196289" type="line"/>
			<point x="676.5028686523" y="794.5579833984" type="line"/>
			<point x="731.7764892578" y="799.2713623047"/>
			<point x="673.1959838867" y="893.4730224609"/>
			<point x="611.3426513672" y="893.4730224609" type="qcurve" smooth="yes"/>
			<point x="525.2031860352" y="893.4730224609"/>
			<point x="333.4213867188" y="732.7994384766"/>
			<point x="305.7416381836" y="677.6822509766" type="qcurve"/>
			<point x="286.8526611328" y="605.5767211914" type="line"/>
			<point x="202.966796875" y="98.5641479492" type="line"/>
			<point x="216.7872924805" y="39.3333740234" type="line"/>
			<point x="32.0947265625" y="-2" type="line"/>
			<point x="10.0947265625" y="49" type="line"/>
			<point x="125.0947265625" y="570" type="line"/>
			<point x="296.5815429688" y="1421.4368896484" type="line"/>
			<point x="105.3508300781" y="1435.9370117188" type="line"/>
			<point x="131.5329589844" y="1512.1196289062" type="line"/>
			<point x="397.2181396484" y="1563.786315918" type="line"/>
			<point x="485.1926269531" y="1514.7092895508" type="line"/>
			<point x="332.5833740234" y="827.3982543945" type="line"/>
			<point x="394.4285888672" y="894.6460571289"/>
			<point x="580.1625976562" y="1015.2176513672"/>
			<point x="673.5568237305" y="1015.2176513672" type="qcurve" smooth="yes"/>
			<point x="756.6442260742" y="1015.2176513672"/>
			<point x="861.54296875" y="939.0433349609"/>
			<point x="867.9245605469" y="950.94921875" type="qcurve" smooth="yes"/>
			<point x="878.0881958008" y="808.6294555664" type="line"/>
			<point x="874.6683959961" y="800.2573852539" type="line"/>
			<point x="396.7403564453" y="422.3403320312" type="line"/>
		</contour>
		<contour>
			<point x="556.4923095703" y="580.6096801758" type="line"/>
			<point x="772.6868286133" y="162.4404907227" type="line"/>
			<point x="956.7363891602" y="187.4404907227" type="line"/>
			<point x="958.7363891602" y="98.4395141602" type="line"/>
			<point x="722.5709838867" y="8.7083740234" type="line" smooth="yes"/>
			<point x="690.1190185547" y="-9.887878418"/>
			<point x="675.4624633789" y="10.5177612305"/>
			<point x="625.9990844727" y="62" type="qcurve" smooth="yes"/>
			<point x="436.0576782227" y="498.9159545898" type="line"/>
		</contour>
	</outline>
	<anchor name="bottom" x="448" y="0"/>
	<anchor name="top" x="578" y="1534"/>
</glyph>
<glyph name="l" format="2">
	<unicode hex="006C"/>
	<advance width="406"/>
	<outline>
		<contour>
			<point x="82.2028198242" y="-5" type="line"/>
			<point x="18.7155761719" y="118.6411743164" type="line"/>
			<point x="135.5104370117" y="604" type="line"/>
			<point x="297.3381347656" y="1423.3005371094" type="line"/>
			<point x="105.0485839844" y="1431.9370117188" type="line"/>
			<point x="131.2307128906" y="1513.1196289062" type="line"/>
			<point x="398.6594848633" y="1566.7606811523" type="line"/>
			<point x="484.633972168" y="1518.4272460938" type="line"/>
			<point x="294.0234985352" y="588" type="line"/>
			<point x="198.8418579102" y="141.0009765625" type="line"/>
			<point x="356.1444702148" y="165.0009765625" type="line"/>
			<point x="356.1444702148" y="76" type="line"/>
		</contour>
	</outline>
	<anchor name="bottom" x="201" y="0"/>
	<anchor name="center" x="236" y="770"/>
	<anchor name="top" x="436" y="1534"/>
	<anchor name="topright" x="492" y="1000"/>
	<anchor name="centerright" x="707" y="742"/>
	<anchor name="liga" x="567" y="0"/>
</glyph>
<glyph name="m" format="2">
	<unicode hex="006D"/>
	<advance width="1657"/>
	<outline>
		<contour>
			<point x="39.4891357422" y="-20.3333740234" type="line"/>
			<point x="10.0532226562" y="23.205078125" type="line"/>
			<point x="120.001953125" y="489" type="line"/>
			<point x="192.1275634766" y="871.0114746094" type="line"/>
			<point x="73.3972167969" y="873.0114746094" type="line"/>
			<point x="75.1245117188" y="971.7852783203" type="line"/>
			<point x="253.0147705078" y="1010.7852783203" type="line"/>
			<point x="327.0404663086" y="995.7852783203" type="line"/>
			<point x="330.0183105469" y="678.2080078125" type="line"/>
			<point x="313.4893798828" y="611" type="line"/>
			<point x="194.4893798828" y="78" type="line"/>
			<point x="215.4893798828" y="17" type="line"/>
		</contour>
		<contour>
			<point x="657.409362793" y="-2.2564086914" type="line"/>
			<point x="636.409362793" y="50.7435913086" type="line"/>
			<point x="812.7459106445" y="843.5288696289" type="line" smooth="yes"/>
			<point x="809.7146606445" y="819.9672241211"/>
			<point x="764.1186523438" y="870.8775634766"/>
			<point x="661.6975708008" y="870.8775634766" type="qcurve" smooth="yes"/>
			<point x="567.7430419922" y="870.8775634766"/>
			<point x="309.9432983398" y="691.489440918"/>
			<point x="208.4766845703" y="602.3660888672" type="qcurve"/>
			<point x="228.5001220703" y="746.9017333984" type="line"/>
			<point x="315.6552734375" y="862.3627929688"/>
			<point x="649.9542236328" y="1021.5288696289"/>
			<point x="795.3135986328" y="1021.5288696289" type="qcurve" smooth="yes"/>
			<point x="907.2710571289" y="1021.5288696289"/>
			<point x="1002.2332763672" y="902.9131469727"/>
			<point x="972.1659545898" y="809.5288696289" type="qcurve" smooth="yes"/>
			<point x="814.8711547852" y="117.1539306641" type="line"/>
			<point x="849.742980957" y="40.3077392578" type="line"/>
		</contour>
		<contour>
			<point x="1341.796875" y="-15.6666870117" type="line"/>
			<point x="1263.283996582" y="102.0513916016" type="line"/>
			<point x="1432.8608398438" y="841.8782958984" type="line" smooth="yes"/>
			<point x="1428.8295898438" y="815.4544067383"/>
			<point x="1383.9861450195" y="875.4124755859"/>
			<point x="1302.2622680664" y="875.4124755859" type="qcurve" smooth="yes"/>
			<point x="1200.5403442383" y="875.4124755859"/>
			<point x="942.186340332" y="667.8952026367"/>
			<point x="859.6516723633" y="572.5990600586" type="qcurve"/>
			<point x="871.4222412109" y="718.7852783203" type="line"/>
			<point x="923.1500854492" y="808.7791748047"/>
			<point x="1264.128112793" y="1020.7852783203"/>
			<point x="1411.1397705078" y="1020.7852783203" type="qcurve" smooth="yes"/>
			<point x="1520.0601806641" y="1020.7852783203"/>
			<point x="1621.9009399414" y="908.4261474609"/>
			<point x="1593.3739013672" y="809.7852783203" type="qcurve" smooth="yes"/>
			<point x="1433.9580688477" y="136.0009765625" type="line"/>
			<point x="1587.7385253906" y="162.0009765625" type="line"/>
			<point x="1587.7385253906" y="73" type="line"/>
		</contour>
	</outline>
	<anchor name="bottom" x="958" y="0"/>
	<anchor name="top" x="958" y="1000"/>
	<anchor name="cy_descender" x="1572" y="134"/>
</glyph>
<glyph name="n" format="2">
	<unicode hex="006E"/>
	<advance width="1003"/>
	<outline>
		<contour>
			<point x="45.0646972656" y="-10.0627441406" type="line"/>
			<point x="14.3894042969" y="40.9372558594" type="line"/>
			<point x="121.001953125" y="490" type="line"/>
			<point x="196.8361816406" y="870.4168701172" type="line"/>
			<point x="72.3972167969" y="872.4168701172" type="line"/>
			<point x="74.1245117188" y="971.1906738281" type="line"/>
			<point x="245.3224487305" y="1006.1593017578" type="line"/>
			<point x="327.0404663086" y="992.1593017578" type="line"/>
			<point x="340.5861206055" y="749.4895019531" type="line"/>
			<point x="346.2457275391" y="775.1906738281" type="line"/>
			<point x="190.3896484375" y="69.9372558594" type="line"/>
			<point x="221.0649414062" y="9.9372558594" type="line"/>
		</contour>
		<contour>
			<point x="702.6759033203" y="-6" type="line"/>
			<point x="650.5974731445" y="50" type="line"/>
			<point x="804.1424560547" y="737.6841430664" type="line" smooth="yes"/>
			<point x="814.9039916992" y="789.9048461914"/>
			<point x="770.1503295898" y="872.3003540039"/>
			<point x="688.2827148438" y="872.3003540039" type="qcurve" smooth="yes"/>
			<point x="584.4844360352" y="872.3003540039"/>
			<point x="364.4313354492" y="754.149230957"/>
			<point x="223.6848144531" y="572.7813110352" type="qcurve"/>
			<point x="233.9537963867" y="711.9250488281" type="line"/>
			<point x="298.6647949219" y="858.0592651367"/>
			<point x="625.5239257812" y="1020.1906738281"/>
			<point x="756.7794189453" y="1020.1906738281" type="qcurve" smooth="yes"/>
			<point x="883.9277954102" y="1020.1906738281"/>
			<point x="996.7243652344" y="879.3131103516"/>
			<point x="980.4580078125" y="808.1906738281" type="qcurve" smooth="yes"/>
			<point x="825.3309936523" y="136.0009765625" type="line"/>
			<point x="953.7699584961" y="160.0009765625" type="line"/>
			<point x="953.7699584961" y="71" type="line"/>
		</contour>
	</outline>
	<anchor name="bottom" x="522" y="0"/>
	<anchor name="top" x="602" y="1000"/>
	<anchor name="liga" x="1173" y="0"/>
</glyph>
<glyph name="q" format="2">
	<unicode hex="0071"/>
	<advance width="962"/>
	<outline>
		<contour>
			<point x="-20.4071655273" y="287.9460449219" type="qcurve" smooth="yes"/>
			<point x="-20.9530639648" y="558.2708740234"/>
			<point x="460.3569335938" y="1003.2985839844"/>
			<point x="671.1689453125" y="1003.2985839844" type="qcurve" smooth="yes"/>
			<point x="728.7392578125" y="1003.2985839844"/>
			<point x="810.21875" y="968.2985839844"/>
			<point x="833.2353515625" y="954.2985839844" type="qcurve"/>
			<point x="905.6018066406" y="984.2985839844" type="line"/>
			<point x="945.6787719727" y="984.2985839844" type="line"/>
			<point x="964.5250244141" y="753.9393920898" type="line"/>
			<point x="886.2510375977" y="412" type="line"/>
			<point x="728.7966918945" y="-292.8627929688" type="line"/>
			<point x="882.5541381836" y="-310.3173828125" type="line"/>
			<point x="858.3720092773" y="-385.5" type="line"/>
			<point x="635.0971069336" y="-412.8590087891" type="line"/>
			<point x="557.8790283203" y="-341.5255737305" type="line"/>
			<point x="697.8918457031" y="235" type="line"/>
			<point x="690.8918457031" y="233" type="line"/>
			<point x="600.4172973633" y="128"/>
			<point x="368.3912353516" y="-11"/>
			<point x="255.6138916016" y="-11" type="qcurve" smooth="yes"/>
			<point x="126.620300293" y="-11"/>
			<point x="-24.9110717773" y="132.2056884766"/>
		</contour>
		<contour>
			<point x="152.3366699219" y="289.9460449219" type="qcurve" smooth="yes"/>
			<point x="143.1384277344" y="183.2474365234"/>
			<point x="233.7507324219" y="108.8610839844"/>
			<point x="330.1560058594" y="108.8610839844" type="qcurve" smooth="yes"/>
			<point x="458.2312011719" y="108.8610839844"/>
			<point x="699.6857910156" y="252.7545166016"/>
			<point x="721.9431152344" y="401" type="qcurve" smooth="yes"/>
			<point x="815.2298583984" y="808.0187988281" type="line"/>
			<point x="796.6595458984" y="836.3576660156"/>
			<point x="699.9487304688" y="873.0187988281"/>
			<point x="639.3286132812" y="873.0187988281" type="qcurve" smooth="yes"/>
			<point x="456.4084472656" y="873.0187988281"/>
			<point x="160.3776855469" y="522.9859619141"/>
		</contour>
	</outline>
	<anchor name="bottom" x="594" y="0"/>
	<anchor name="top" x="594" y="1000"/>
</glyph>
<glyph name="r" format="2">
	<unicode hex="0072"/>
	<advance width="671"/>
	<outline>
		<contour>
			<point x="72.9223632812" y="-9.9383544922" type="line"/>
			<point x="19.5581665039" y="69.6928100586" type="line"/>
			<point x="151.8525390625" y="562.7795410156" type="line"/>
			<point x="177.6773681641" y="861.1781005859" type="line"/>
			<point x="36.057800293" y="836.6018066406" type="line"/>
			<point x="38.7850952148" y="942.8115234375" type="line"/>
			<point x="197.7652587891" y="1011.3504638672" type="line"/>
			<point x="288.5628051758" y="1005.1442260742" type="line"/>
			<point x="313.7446289062" y="844.9313964844" type="line"/>
			<point x="361.0061035156" y="895.8156738281" type="line"/>
			<point x="216.4343261719" y="128.2159423828" type="line"/>
			<point x="371.2630004883" y="145.1039428711" type="line"/>
			<point x="374.0739746094" y="51.4376831055" type="line"/>
		</contour>
		<contour>
			<point x="665.0402924396" y="729.1591796875" type="line"/>
			<point x="634.1074578803" y="866.5557393516" type="line"/>
			<point x="515.9928079175" y="866.5557393516"/>
			<point x="314.9292247243" y="735.774617216"/>
			<point x="210.948513097" y="594.9669942344" type="qcurve"/>
			<point x="220.9591064453" y="712.5731201172" type="line"/>
			<point x="333.2329329859" y="881.1152618716"/>
			<point x="601.1076141431" y="1025.6235351562"/>
			<point x="713.365234375" y="1025.6235351562" type="qcurve" smooth="yes"/>
			<point x="749.1116419073" y="1025.6235351562"/>
			<point x="791.1126708984" y="1011.5186482707"/>
			<point x="791.1126708984" y="979.6742553711" type="qcurve" smooth="yes"/>
			<point x="791.1126708984" y="910.9372899824"/>
			<point x="732.2173006728" y="712.5139108361"/>
			<point x="686.7030639648" y="727.0751342773" type="qcurve" smooth="yes"/>
		</contour>
	</outline>
	<anchor name="bottom" x="282" y="0"/>
	<anchor name="top" x="486" y="1000"/>
</glyph>
<glyph name="t" format="2">
	<unicode hex="0074"/>
	<advance width="455"/>
	<outline>
		<contour>
			<point x="139.7653808594" y="-4" type="line"/>
			<point x="37.5344848633" y="46" type="line"/>
			<point x="136.5344848633" y="503" type="line"/>
			<point x="218.1757202148" y="912.1953125" type="line"/>
			<point x="78.9193115234" y="918.1440429688" type="line"/>
			<point x="87.8031005859" y="990.6560058594" type="line"/>
			<point x="196.2703857422" y="988.8511352539"/>
			<point x="302.2095947266" y="1291.9006347656"/>
			<point x="312.4614868164" y="1304.1906738281" type="qcurve"/>
			<point x="420.8807373047" y="1304.1906738281" type="line"/>
			<point x="438.7269287109" y="1260.1393432617" type="line"/>
			<point x="297.4749755859" y="486" type="line"/>
			<point x="238.8903808594" y="130.2281494141" type="line"/>
			<point x="402.0381469727" y="152.2281494141" type="line"/>
			<point x="402.0381469727" y="77" type="line"/>
		</contour>
		<contour>
			<point x="312.3231201172" y="936.1208496094" type="line"/>
			<point x="343.3465576172" y="1018.888671875" type="line"/>
			<point x="614.5547485352" y="1059.0981445312" type="line"/>
			<point x="610.7407836914" y="952.1208496094" type="line"/>
		</contour>
	</outline>
	<anchor name="bottom" x="149" y="0"/>
	<anchor name="center" x="262" y="622"/>
	<anchor name="top" x="322" y="1179"/>
	<anchor name="topright" x="600" y="920"/>
</glyph>
<glyph name="u" format="2">
	<unicode hex="0075"/>
	<advance width="1017"/>
	<outline>
		<contour>
			<point x="742.9208374023" y="-4" type="line"/>
			<point x="673.151550293" y="111.4616699219" type="line"/>
			<point x="699.9465942383" y="318.3146362305" type="line"/>
			<point x="838.1898803711" y="912.0721435547" type="line"/>
			<point x="832.7026977539" y="979.2772827148" type="line"/>
			<point x="1002.2157592773" y="1010.3798828125" type="line"/>
			<point x="1028.8824462891" y="990.3798828125" type="line"/>
			<point x="828.4850463867" y="179" type="line"/>
			<point x="823.275390625" y="135.1373291016" type="line"/>
			<point x="935.0325927734" y="139.1373291016" type="line"/>
			<point x="936.7598876953" y="53" type="line"/>
		</contour>
		<contour>
			<point x="61.3822021484" y="272" type="qcurve" smooth="yes"/>
			<point x="202.6267089844" y="872.4697265625" type="line"/>
			<point x="72.1877441406" y="874.4697265625" type="line"/>
			<point x="73.9150390625" y="972.3798828125" type="line"/>
			<point x="264.2412109375" y="1010.3798828125" type="line"/>
			<point x="323.2412719727" y="1010.3798828125" type="line"/>
			<point x="371.4721069336" y="931.6361694336" type="line"/>
			<point x="214.8469848633" y="201.6047363281" type="line" smooth="yes"/>
			<point x="202.5082397461" y="157.046875"/>
			<point x="272.5119628906" y="124.6518554688"/>
			<point x="347.4608154297" y="124.6518554688" type="qcurve" smooth="yes"/>
			<point x="464.0052490234" y="124.6518554688"/>
			<point x="676.1134643555" y="304.7686767578"/>
			<point x="777.9177856445" y="368.1963500977" type="qcurve"/>
			<point x="758.700012207" y="224.303527832" type="line"/>
			<point x="668.9653320312" y="142.1802368164"/>
			<point x="391.5694580078" y="-8"/>
			<point x="254.0307617188" y="-8" type="qcurve" smooth="yes"/>
			<point x="139.0420532227" y="-8"/>
			<point x="22.4078369141" y="107"/>
		</contour>
	</outline>
	<anchor name="bottom" x="404" y="0"/>
	<anchor name="ogonek" x="871" y="20"/>
	<anchor name="top" x="572" y="1000"/>
	<anchor name="topright" x="915" y="1000"/>
	<anchor name="cy_descender" x="1018" y="134"/>
</glyph>
<glyph name="v" format="2">
	<unicode hex="0076"/>
	<advance width="833"/>
	<outline>
		<contour>
			<point x="204.9593505859" y="-8" type="line"/>
			<point x="173.8295898438" y="536.3356933594" type="line"/>
			<point x="165.8363647461" y="853.0904541016" type="line"/>
			<point x="22.4273681641" y="858.5450439453" type="line"/>
			<point x="25.1546630859" y="957.3188476562" type="line"/>
			<point x="264.3143310547" y="1009.1906738281" type="line"/>
			<point x="324.9298095703" y="1009.1906738281" type="line"/>
			<point x="323.3057250977" y="618.2889404297" type="line"/>
			<point x="332.8027954102" y="228.8264770508" type="line"/>
			<point x="330.3588256836" y="155.9425048828" type="line"/>
			<point x="331.3588256836" y="155.9425048828" type="line"/>
			<point x="403.3119506836" y="224.292175293" type="line"/>
			<point x="657.2492675781" y="502.2485351562"/>
			<point x="716.1306762695" y="645.9474487305"/>
			<point x="720.1306762695" y="710.8876953125" type="qcurve" smooth="yes"/>
			<point x="722.1306762695" y="807.1299438477"/>
			<point x="650.6339111328" y="930.3070068359"/>
			<point x="606.6339111328" y="955.4423828125" type="qcurve" smooth="yes"/>
			<point x="634.6339111328" y="979.1593017578"/>
			<point x="713.0323486328" y="1033.2526855469"/>
			<point x="756.9423217773" y="1033.2526855469" type="qcurve" smooth="yes"/>
			<point x="789.0097045898" y="1033.2526855469"/>
			<point x="890.2505493164" y="952.3146362305"/>
			<point x="890.2505493164" y="851.6076660156" type="qcurve" smooth="yes"/>
			<point x="890.2505493164" y="689.9325561523"/>
			<point x="590.2064208984" y="246.3472900391"/>
			<point x="292.3048095703" y="-8" type="qcurve"/>
		</contour>
	</outline>
	<anchor name="bottom" x="513" y="0"/>
	<anchor name="top" x="513" y="1000"/>
</glyph>
<glyph name="x" format="2">
	<unicode hex="0078"/>
	<advance width="657"/>
	<outline>
		<contour>
			<point x="32.1912841797" y="-4" type="qcurve"/>
			<point x="-111.5584716797" y="26" type="line"/>
			<point x="-99.3310546875" y="120.0465087891" type="line"/>
			<point x="-0.9896240234" y="121.0465087891" type="line" smooth="yes"/>
			<point x="31.0228271484" y="124.0465087891"/>
			<point x="74.1380615234" y="158.2791137695"/>
			<point x="78.1507568359" y="158.4345703125" type="qcurve" smooth="yes"/>
			<point x="80.5388793945" y="151.357421875"/>
			<point x="220.1295776367" y="340.4724731445"/>
			<point x="325.1432495117" y="521.4366455078" type="qcurve"/>
			<point x="225.9373779297" y="886.8714599609" type="line"/>
			<point x="76.9978027344" y="868.4168701172" type="line"/>
			<point x="75.7250976562" y="975.1906738281" type="line"/>
			<point x="301.4103393555" y="1019.1906738281" type="line"/>
			<point x="369.7437744141" y="1012.1906738281" type="line"/>
			<point x="403.6530151367" y="779.5825805664" type="line"/>
			<point x="415.5678710938" y="706.8103637695" type="line"/>
			<point x="416.5678710938" y="706.8103637695" type="line"/>
			<point x="461.1889648438" y="774.489440918" type="line" smooth="yes"/>
			<point x="541.6826171875" y="925.0896606445"/>
			<point x="545.7229614258" y="933.7544555664"/>
			<point x="560.6478881836" y="951.1516113281" type="qcurve" smooth="yes"/>
			<point x="582.0557861328" y="976.2678222656"/>
			<point x="671.9573364258" y="1025.1906738281"/>
			<point x="704.9736938477" y="1025.1906738281" type="qcurve" smooth="yes"/>
			<point x="744.6050415039" y="1025.1906738281"/>
			<point x="754.7504882812" y="983.8615112305"/>
			<point x="754.7504882812" y="953.8615112305" type="qcurve" smooth="yes"/>
			<point x="754.7504882812" y="935.8615112305"/>
			<point x="726.0796508789" y="905.1906738281"/>
			<point x="709.0796508789" y="901.1906738281" type="qcurve"/>
			<point x="700.0796508789" y="901.1906738281" type="line"/>
			<point x="692.2656860352" y="896.9652099609" type="line" smooth="yes"/>
			<point x="688.6377563477" y="884.4300537109"/>
			<point x="685.9231567383" y="903.6088867188"/>
			<point x="686.1552124023" y="903.6088867188" type="qcurve" smooth="yes"/>
			<point x="682.1997680664" y="903.6088867188"/>
			<point x="624.458190918" y="851.1138916016"/>
			<point x="582.6870727539" y="794.1424560547" type="qcurve" smooth="yes"/>
			<point x="557.6369018555" y="762.140625"/>
			<point x="530.2349853516" y="723.2818603516"/>
			<point x="457.399597168" y="587.8101196289" type="qcurve"/>
			<point x="572.391784668" y="120.0009765625" type="line"/>
			<point x="760.8767700195" y="149.0009765625" type="line"/>
			<point x="762.8767700195" y="65" type="line"/>
			<point x="505.0120239258" y="-10" type="line"/>
			<point x="429.3709106445" y="15" type="line"/>
			<point x="370.9584960938" y="351.7713012695" type="line"/>
			<point x="357.5908813477" y="420.9398803711" type="line"/>
			<point x="356.5908813477" y="420.9398803711" type="line"/>
			<point x="314.9572753906" y="355.8554077148" type="line"/>
			<point x="263.1434936523" y="239.4835205078"/>
			<point x="247.9385986328" y="197.1341552734"/>
			<point x="216.5432739258" y="142.2362060547" type="qcurve" smooth="yes"/>
			<point x="176.0690917969" y="90.1771240234"/>
			<point x="72.6798095703" y="-23.0466308594"/>
		</contour>
	</outline>
	<anchor name="bottom" x="522" y="0"/>
	<anchor name="top" x="522" y="1000"/>
	<anchor name="cy_descender" x="832" y="134"/>
	<anchor name="center" x="432" y="502"/>
</glyph>
<glyph name="y" format="2">
	<unicode hex="0079"/>
	<advance width="851"/>
	<outline>
		<contour>
			<point x="-330.5864257812" y="-340.5" type="line"/>
			<point x="-320.5864257812" y="-328.5" type="line"/>
			<point x="-217.5450439453" y="-328.5" type="line" smooth="yes"/>
			<point x="-116.1119384766" y="-328.5"/>
			<point x="116.9317626953" y="-195.0927734375"/>
			<point x="195.3889770508" y="-95" type="qcurve" smooth="yes"/>
			<point x="270.6501464844" y="15" type="line"/>
			<point x="237.8654785156" y="15" type="line"/>
			<point x="241.1373291016" y="144.2427978516"/>
			<point x="189.5084838867" y="778.4168701172"/>
			<point x="170.6544189453" y="871.4168701172" type="qcurve"/>
			<point x="21.3968505859" y="873.4168701172" type="line"/>
			<point x="24.1241455078" y="972.1906738281" type="line"/>
			<point x="262.6733398438" y="1009.1906738281" type="line"/>
			<point x="323.0932617188" y="1009.1906738281" type="line"/>
			<point x="340.3223266602" y="1003.1906738281" type="line"/>
			<point x="377.8298339844" y="187.0394897461" type="line"/>
			<point x="379.5925292969" y="107.4670410156" type="line"/>
			<point x="380.5925292969" y="107.4670410156" type="line"/>
			<point x="451.3827514648" y="178.7842407227" type="line" smooth="yes"/>
			<point x="621.7821044922" y="399.1644897461"/>
			<point x="771.1133422852" y="664.2708740234"/>
			<point x="771.1133422852" y="821.0823974609" type="qcurve" smooth="yes"/>
			<point x="771.1133422852" y="880.0823974609"/>
			<point x="719.5775146484" y="958.0823974609"/>
			<point x="684.5775146484" y="978.0823974609" type="qcurve" smooth="yes"/>
			<point x="704.5775146484" y="990.0823974609"/>
			<point x="759.7057495117" y="1009.0823974609"/>
			<point x="787.3980712891" y="1009.0823974609" type="qcurve" smooth="yes"/>
			<point x="823.2698974609" y="1009.0823974609"/>
			<point x="905.1149902344" y="948.0823974609"/>
			<point x="905.1149902344" y="895.0823974609" type="qcurve" smooth="yes"/>
			<point x="905.1149902344" y="758.0823974609"/>
			<point x="604.9019165039" y="178.1146240234"/>
			<point x="357.2601318359" y="-53.2094726562" type="qcurve" smooth="yes"/>
			<point x="292.0072631836" y="-132.2094726562" type="line" smooth="yes"/>
			<point x="105.4352416992" y="-329.081237793"/>
			<point x="-122.7077026367" y="-398.5"/>
			<point x="-192.5450439453" y="-398.5" type="qcurve"/>
		</contour>
	</outline>
	<anchor name="bottom" x="782" y="0"/>
	<anchor name="top" x="504" y="1000"/>
</glyph>
<glyph name="z" format="2">
	<unicode hex="007A"/>
	<advance width="579"/>
	<outline>
		<contour>
			<point x="-61.4162597656" y="-14.1628417969" type="line"/>
			<point x="-142.998046875" y="64.1398925781" type="line"/>
			<point x="-77.1607055664" y="125.6748046875"/>
			<point x="175.8307495117" y="458.3228759766"/>
			<point x="264.8088378906" y="574.8905029297" type="qcurve" smooth="yes"/>
			<point x="334.509765625" y="668.8905029297"/>
			<point x="457.7219848633" y="819.7794799805"/>
			<point x="490.3701171875" y="846.805847168" type="qcurve"/>
			<point x="214.3333129883" y="845.8314819336" type="line"/>
			<point x="177.5210571289" y="822.1950683594" type="line"/>
			<point x="74.9055786133" y="824.1950683594" type="line"/>
			<point x="127.3845825195" y="990.1906738281" type="line"/>
			<point x="143.3845825195" y="1009.1906738281" type="line"/>
			<point x="718.1145629883" y="1009.1906738281" type="line"/>
			<point x="727.5564575195" y="952.9113769531" type="line"/>
			<point x="691.4345092773" y="899.9113769531"/>
			<point x="475.4223632812" y="613.08203125"/>
			<point x="404.5689697266" y="514.4874267578" type="qcurve" smooth="yes"/>
			<point x="322.4771118164" y="402.9197998047"/>
			<point x="179.8909912109" y="232.2445678711"/>
			<point x="119.744934082" y="210.0585327148" type="qcurve"/>
			<point x="468.5708007812" y="158.4603271484" type="line"/>
			<point x="474.5354614258" y="154.0509033203" type="line"/>
			<point x="563.3852539062" y="129.3065795898" type="line"/>
			<point x="502.2666015625" y="0" type="line"/>
			<point x="473.2666015625" y="-19" type="line"/>
			<point x="42.8970947266" y="68.744140625" type="line"/>
		</contour>
	</outline>
	<anchor name="bottom" x="443" y="0"/>
	<anchor name="top" x="463" y="1000"/>
	<anchor name="_liga" x="0" y="0"/>
</glyph>
<glyph name="idotless" format="2">
	<unicode hex="0131"/>
	<advance width="418"/>
	<outline>
		<contour>
			<point x="109.0642700195" y="-6" type="line"/>
			<point x="34.0385742188" y="109.4616699219" type="line"/>
			<point x="147.1676025391" y="595.3521728516" type="line"/>
			<point x="198.4918212891" y="872.4168701172" type="line"/>
			<point x="77.6437988281" y="872.4168701172" type="line"/>
			<point x="79.37109375" y="971.1906738281" type="line"/>
			<point x="272.2100830078" y="1011.1906738281" type="line"/>
			<point x="332.6204223633" y="1011.1906738281" type="line"/>
			<point x="382.1076660156" y="888.9084472656" type="line"/>
			<point x="354.2871704102" y="814.1906738281" type="line"/>
			<point x="279.2191162109" y="459.7623901367" type="line"/>
			<point x="209.5669555664" y="130.0009765625" type="line"/>
			<point x="368.7238769531" y="153.0009765625" type="line"/>
			<point x="368.7238769531" y="66" type="line"/>
		</contour>
	</outline>
	<anchor name="bottom" x="180" y="0"/>
	<anchor name="top" x="320" y="1000"/>
	<anchor name="ogonek" x="180" y="0"/>
	<anchor name="yu_dash" x="239" y="498"/>
	<anchor name="liga" x="618" y="0"/>
</glyph>
<glyph name="jdotless" format="2">
	<unicode hex="0237"/>
	<advance width="393"/>
	<outline>
		<contour>
			<point x="226.5489501953" y="872.4168701172" type="qcurve"/>
			<point x="96.7917480469" y="872.4168701172" type="line"/>
			<point x="98.5190429688" y="971.1906738281" type="line"/>
			<point x="283.6400756836" y="1011.1906738281" type="line"/>
			<point x="354.486328125" y="1011.1906738281" type="line"/>
			<point x="415.2043457031" y="893.6520385742" type="line"/>
			<point x="372.8245849609" y="814.1906738281" type="line"/>
			<point x="266.4736328125" y="303" type="line"/>
			<point x="192.4736328125" y="-45.403137207"/>
			<point x="-120.3529052734" y="-467"/>
			<point x="-347.9486083984" y="-467" type="qcurve"/>
			<point x="-511.2937011719" y="-427" type="line"/>
			<point x="-494.748046875" y="-334.2261962891" type="line"/>
			<point x="-366.4029541016" y="-332.4989013672" type="line" smooth="yes"/>
			<point x="-177.0680541992" y="-332.0957641602"/>
			<point x="22.9421386719" y="-73.4356079102"/>
			<point x="86.7602539062" y="225.5008544922" type="qcurve" smooth="yes"/>
			<point x="100.9641113281" y="275.2165527344"/>
			<point x="205.6669921875" y="771.5687255859"/>
		</contour>
	</outline>
	<anchor name="bottom" x="88" y="-436"/>
	<anchor name="top" x="320" y="1000"/>
	<anchor name="_liga" x="0" y="0"/>
</glyph>
